<?xml version="1.0" encoding="iso-8859-1"?>
<!-- Generator: Adobe Illustrator 17.1.0, SVG Export Plug-In . SVG Version: 6.00 Build 0)  -->
<!DOCTYPE svg PUBLIC "-//W3C//DTD SVG 1.1//EN" "http://www.w3.org/Graphics/SVG/1.1/DTD/svg11.dtd">
<svg xmlns="http://www.w3.org/2000/svg" xmlns:xlink="http://www.w3.org/1999/xlink" version="1.1" id="Capa_1" x="0px" y="0px" viewBox="0 0 200.401 200.401" style="enable-background:new 0 0 200.401 200.401;" xml:space="preserve" width="512px" height="512px">
<path d="M169.624,175.288c4.143,0,7.5-3.358,7.5-7.5V7.5c0-4.142-3.357-7.5-7.5-7.5H38.242C29.99,0,23.277,6.713,23.277,14.965  v158.252c0,0.256,0.013,0.51,0.038,0.76c-0.013,0.252-0.038,0.501-0.038,0.757v10.577c0,8.321,6.77,15.091,15.091,15.091h2.108  h121.245h7.903c4.143,0,7.5-3.358,7.5-7.5s-3.357-7.5-7.5-7.5h-0.403v-10.113H169.624z M77.867,59.067H92.7V44.563  c0-4.142,3.357-7.5,7.5-7.5s7.5,3.358,7.5,7.5v14.505h14.833c4.143,0,7.5,3.358,7.5,7.5s-3.357,7.5-7.5,7.5H107.7v45.495  c0,4.142-3.357,7.5-7.5,7.5s-7.5-3.358-7.5-7.5V74.067H77.867c-4.143,0-7.5-3.358-7.5-7.5S73.725,59.067,77.867,59.067z   M154.221,185.401H40.476h-2.108c-0.05,0-0.091-0.041-0.091-0.091v-10.022h115.944V185.401z" fill="#FFFFFF"/>
<g>
</g>
<g>
</g>
<g>
</g>
<g>
</g>
<g>
</g>
<g>
</g>
<g>
</g>
<g>
</g>
<g>
</g>
<g>
</g>
<g>
</g>
<g>
</g>
<g>
</g>
<g>
</g>
<g>
</g>
</svg>
